<svg width="25" height="25" viewBox="0 0 33 33" fill="none" xmlns="http://www.w3.org/2000/svg">
<path fill-rule="evenodd" clip-rule="evenodd" d="M16.5 1.375C8.14688 1.375 1.375 8.14688 1.375 16.5C1.375 24.8531 8.14688 31.625 16.5 31.625C24.8531 31.625 31.625 24.8531 31.625 16.5C31.625 8.14688 24.8531 1.375 16.5 1.375ZM21.5971 13.3471C21.8476 13.0878 21.9862 12.7405 21.9831 12.3799C21.9799 12.0194 21.8353 11.6746 21.5804 11.4196C21.3254 11.1647 20.9806 11.0201 20.6201 11.0169C20.2595 11.0138 19.9122 11.1524 19.6529 11.4029L16.5 14.5558L13.3471 11.4029C13.2203 11.2715 13.0686 11.1668 12.9008 11.0947C12.7331 11.0227 12.5526 10.9847 12.3701 10.9832C12.1875 10.9816 12.0064 11.0164 11.8374 11.0855C11.6685 11.1546 11.5149 11.2567 11.3858 11.3858C11.2567 11.5149 11.1546 11.6685 11.0855 11.8374C11.0164 12.0064 10.9816 12.1875 10.9832 12.3701C10.9847 12.5526 11.0227 12.7331 11.0947 12.9008C11.1668 13.0686 11.2715 13.2203 11.4029 13.3471L14.5558 16.5L11.4029 19.6529C11.2715 19.7797 11.1668 19.9314 11.0947 20.0992C11.0227 20.2669 10.9847 20.4474 10.9832 20.6299C10.9816 20.8125 11.0164 20.9936 11.0855 21.1626C11.1546 21.3315 11.2567 21.4851 11.3858 21.6142C11.5149 21.7433 11.6685 21.8454 11.8374 21.9145C12.0064 21.9836 12.1875 22.0184 12.3701 22.0168C12.5526 22.0153 12.7331 21.9773 12.9008 21.9053C13.0686 21.8332 13.2203 21.7285 13.3471 21.5971L16.5 18.4442L19.6529 21.5971C19.9122 21.8476 20.2595 21.9862 20.6201 21.9831C20.9806 21.9799 21.3254 21.8353 21.5804 21.5804C21.8353 21.3254 21.9799 20.9806 21.9831 20.6201C21.9862 20.2595 21.8476 19.9122 21.5971 19.6529L18.4442 16.5L21.5971 13.3471Z" fill="black"/>
</svg>
