<svg width="25" height="25" viewBox="0 0 33 33" fill="none" xmlns="http://www.w3.org/2000/svg">
<path d="M16.5 2.0625V9.28125C16.5 10.101 16.8254 10.8873 17.4047 11.4674C17.984 12.0475 18.7698 12.3739 19.5896 12.375H26.8084V14.5097C25.7373 14.6952 24.7501 15.2082 23.9828 15.9782L15.1408 24.8201C14.142 25.8185 13.4333 27.0697 13.0907 28.4398L12.4678 30.9334H9.28125C8.46074 30.9334 7.67383 30.6074 7.09364 30.0272C6.51345 29.447 6.1875 28.6601 6.1875 27.8396V5.15625C6.1875 4.33574 6.51345 3.54883 7.09364 2.96864C7.67383 2.38845 8.46074 2.0625 9.28125 2.0625H16.5ZM26.8084 16.6238C26.3093 16.7702 25.839 17.0424 25.443 17.4364L16.6031 26.2762C15.8695 27.0103 15.349 27.93 15.0975 28.9369L14.4726 31.4346C14.42 31.645 14.4228 31.8655 14.4806 32.0745C14.5384 32.2836 14.6492 32.4742 14.8024 32.6278C14.9556 32.7814 15.1458 32.8927 15.3547 32.9511C15.5636 33.0094 15.7841 33.0128 15.9947 32.9608L18.4924 32.3359C19.4993 32.0844 20.419 31.564 21.153 30.8302L29.997 21.9862C30.5037 21.4806 30.8273 20.8205 30.9166 20.1103C31.006 19.4001 30.8559 18.6804 30.4903 18.0651C30.1246 17.4498 29.5642 16.9739 28.8977 16.7129C28.2312 16.4518 27.4967 16.4205 26.8104 16.6238H26.8084ZM18.5584 2.57812V9.28125C18.5584 9.55475 18.667 9.81706 18.8604 10.0105C19.0538 10.2039 19.3161 10.3125 19.5896 10.3125H26.2928L18.5584 2.57812V2.57812Z" fill="black"/>
</svg>
