<svg width="25" height="25" viewBox="0 0 33 33" fill="none" xmlns="http://www.w3.org/2000/svg">
<g clip-path="url(#clip0_3_6)">
<path d="M27.8438 20.625H25.7812C25.5077 20.625 25.2454 20.7336 25.052 20.927C24.8586 21.1204 24.75 21.3827 24.75 21.6562V28.875H4.125V8.25H13.4062C13.6798 8.25 13.9421 8.14135 14.1355 7.94795C14.3289 7.75456 14.4375 7.49225 14.4375 7.21875V5.15625C14.4375 4.88275 14.3289 4.62044 14.1355 4.42705C13.9421 4.23365 13.6798 4.125 13.4062 4.125H3.09375C2.27324 4.125 1.48633 4.45095 0.906138 5.03114C0.325948 5.61133 0 6.39824 0 7.21875L0 29.9062C0 30.7268 0.325948 31.5137 0.906138 32.0939C1.48633 32.6741 2.27324 33 3.09375 33H25.7812C26.6018 33 27.3887 32.6741 27.9689 32.0939C28.5491 31.5137 28.875 30.7268 28.875 29.9062V21.6562C28.875 21.3827 28.7664 21.1204 28.573 20.927C28.3796 20.7336 28.1173 20.625 27.8438 20.625ZM31.4531 0H23.2031C21.8258 0 21.1374 1.66998 22.1074 2.64258L24.4103 4.94549L8.70117 20.6488C8.55696 20.7926 8.44254 20.9633 8.36446 21.1513C8.28639 21.3394 8.2462 21.541 8.2462 21.7446C8.2462 21.9481 8.28639 22.1497 8.36446 22.3378C8.44254 22.5258 8.55696 22.6965 8.70117 22.8403L10.1623 24.2988C10.306 24.443 10.4768 24.5575 10.6648 24.6355C10.8528 24.7136 11.0544 24.7538 11.258 24.7538C11.4616 24.7538 11.6632 24.7136 11.8512 24.6355C12.0393 24.5575 12.21 24.443 12.3537 24.2988L28.0552 8.59289L30.3574 10.8926C31.3242 11.8594 33 11.1826 33 9.79688V1.54688C33 1.13662 32.837 0.743165 32.5469 0.453069C32.2568 0.162974 31.8634 0 31.4531 0V0Z" fill="black"/>
</g>
<defs>
<clipPath id="clip0_3_6">
<rect width="33" height="33" fill="white"/>
</clipPath>
</defs>
</svg>
